<?xml version="1.0" encoding="UTF-8" standalone="no"?><!DOCTYPE svg PUBLIC "-//W3C//DTD SVG 1.1//EN" "http://www.w3.org/Graphics/SVG/1.1/DTD/svg11.dtd"><svg width="100%" height="100%" viewBox="0 0 52 105" version="1.1" xmlns="http://www.w3.org/2000/svg" xmlns:xlink="http://www.w3.org/1999/xlink" xml:space="preserve" xmlns:serif="http://www.serif.com/" style="fill-rule:evenodd;clip-rule:evenodd;stroke-linecap:round;stroke-linejoin:round;stroke-miterlimit:1.5;"><rect id="Artboard2" x="0" y="0.5" width="52" height="104.5" style="fill:none;"/><clipPath id="_clip1"><rect x="0" y="0.5" width="52" height="104.5"/></clipPath><g clip-path="url(#_clip1)"><path d="M2.901,2l44.36,0c2.064,0 3.739,2.379 3.739,5.31l0,91.38c0,2.931 -1.676,5.31 -3.739,5.31l-34.071,0c-2.064,0 -3.739,-2.379 -3.739,-5.31l0,-69.69l-6.55,0c-1.049,0 -1.901,-1.21 -1.901,-2.7l0,-21.6c0,-1.49 0.852,-2.7 1.901,-2.7Z" style="fill:none;stroke:#fff;stroke-width:2px;"/><g><path d="M26,21.922l3,-3" style="fill:none;stroke:#fff;stroke-width:2px;"/><path d="M26,21.922l3,3" style="fill:none;stroke:#fff;stroke-width:2px;"/><path d="M32,14l9,0l0,7.922l-5.169,0l-9.831,0" style="fill:none;stroke:#fff;stroke-width:2px;"/></g></g></svg>